# xmcd CD database file
#
# Track frame offsets:
#	150
#	13842
#	26607
#	41380
#	56245
#	69862
#	82335
#	97247
#	110882
#	123192
#	136560
#	146715
#	160705
#	173887
#	187407
#	199687
#	212140
#	226367
#	241195
#	254992
#	268730
#	282250
#	297700
#	311787
#	324337
#
# Disc length: 4521 seconds
#
# Revision: 1
# Processed by: cddbd v1.5PL3 Copyright (c) Steve Scherf et al.
# Submitted via: CDex 1.51
#
DISCID=8c11a719
DTITLE=Django Reinhardt - Swing De Paris - CD2 - Major Swing
DYEAR=1995
DGENRE=Jazz
TTITLE0=Parfum [Reinhardt, Grappelli]
TTITLE1=Alabamy Bound [Green, De Dylva, Henderson]
TTITLE2=Minor Swing [Reinhardt, Grappelli]
TTITLE3=Viper's Dream [Allen]
TTITLE4=Crazy Rhythm [Ceasar, Meyer, Wolfe-Kahn]
TTITLE5=Honeysuckle Rose [Waller, Razaf]
TTITLE6=Out Of Nowhere [Heyman, Green]
TTITLE7=Sweet Georgia Brown [Pinkard, Bernie, Casey]
TTITLE8=Bugle Call Rag [Pettis, Schoebel, Meyers]
TTITLE9=Between The Devil And The Deep Blue Sea [Arlen, Koehler]
TTITLE10=I Got Rhythm [G. and I. Gershwin]
TTITLE11=Sweet Sue, Just You [Harris, Young]
TTITLE12=Hangin' Around Boudon [Wells]
TTITLE13=Japanese Sandman [Egan, Whiting]
TTITLE14=St. Louis Blues [Handy]
TTITLE15=Bouncin' Around [Deloof]
TTITLE16=Eddie's Blues [South, Reinhardt]
TTITLE17=Oh Lady Be Good [G. and I. Gershwin]
TTITLE18=Daphne [Reinhardt, Grappelli]
TTITLE19=I Ain't Got Nobody [Graham, Williams]
TTITLE20=Baby Won't You Please Come Home? [Warfield, Williams]
TTITLE21=Big Boy Blues [Goudie]
TTITLE22=Swing Guitars [Reinhardt, Grappelli]
TTITLE23=Bill Coleman Blues [Coleman]
TTITLE24=I Can't Believe That You're In Love With Me [Fields, McHugh]
EXTD=YEAR: 1995
EXTT0=
EXTT1=
EXTT2=
EXTT3=
EXTT4=
EXTT5=
EXTT6=
EXTT7=
EXTT8=
EXTT9=
EXTT10=
EXTT11=
EXTT12=
EXTT13=
EXTT14=
EXTT15=
EXTT16=
EXTT17=
EXTT18=
EXTT19=
EXTT20=
EXTT21=
EXTT22=
EXTT23=
EXTT24=
PLAYORDER=
